<svg width="51" height="60" viewBox="0 0 51 60" fill="none" xmlns="http://www.w3.org/2000/svg">
<rect x="6" y="18" width="3" height="3" fill="black"/>
<rect x="6" y="15" width="3" height="3" fill="black"/>
<rect x="36" y="3" width="3" height="3" fill="black"/>
<rect x="42" y="9" width="3" height="3" fill="black"/>
<rect x="42" y="12" width="3" height="3" fill="black"/>
<rect x="42" y="18" width="3" height="3" fill="black"/>
<rect x="48" y="18" width="3" height="3" fill="black"/>
<rect x="48" y="15" width="3" height="3" fill="black"/>
<rect x="36" y="15" width="3" height="3" fill="black"/>
<rect x="42" y="15" width="3" height="3" fill="black"/>
<rect x="42" y="24" width="3" height="3" fill="black"/>
<rect x="42" y="27" width="3" height="3" fill="black"/>
<rect x="45" y="30" width="3" height="3" fill="black"/>
<rect x="45" y="12" width="3" height="3" fill="black"/>
<rect x="42" y="21" width="3" height="3" fill="black"/>
<rect x="48" y="21" width="3" height="3" fill="black"/>
<rect x="48" y="24" width="3" height="3" fill="black"/>
<rect x="48" y="27" width="3" height="3" fill="black"/>
<rect x="18" y="3" width="3" height="3" fill="black"/>
<rect x="18" y="27" width="3" height="3" fill="black"/>
<rect x="15" y="30" width="3" height="3" fill="black"/>
<rect x="18" y="30" width="3" height="3" fill="black"/>
<rect x="12" y="27" width="3" height="3" fill="black"/>
<rect x="6" y="21" width="3" height="3" fill="black"/>
<rect x="6" y="24" width="3" height="3" fill="black"/>
<rect x="6" y="27" width="3" height="3" fill="black"/>
<rect x="24" width="3" height="3" fill="black"/>
<rect x="21" width="3" height="3" fill="black"/>
<rect x="24" y="15" width="3" height="3" fill="black"/>
<rect x="21" y="15" width="3" height="3" fill="black"/>
<rect x="21" y="9" width="3" height="3" fill="black"/>
<rect x="21" y="12" width="3" height="3" fill="black"/>
<rect x="15" y="18" width="3" height="3" fill="black"/>
<rect x="15" y="6" width="3" height="3" fill="black"/>
<rect x="27" y="15" width="3" height="3" fill="black"/>
<rect x="24" y="33" width="3" height="3" fill="black"/>
<rect x="21" y="33" width="3" height="3" fill="black"/>
<rect x="24" y="21" width="3" height="3" fill="black"/>
<rect x="21" y="24" width="3" height="3" fill="black"/>
<rect x="15" y="36" width="3" height="3" fill="black"/>
<rect x="18" y="33" width="3" height="3" fill="black"/>
<rect x="12" y="15" width="3" height="3" fill="black"/>
<rect x="9" y="30" width="3" height="3" fill="black"/>
<rect x="9" y="12" width="3" height="3" fill="black"/>
<rect x="12" y="9" width="3" height="3" fill="black"/>
<rect x="12" y="12" width="3" height="3" fill="black"/>
<rect x="12" y="18" width="3" height="3" fill="black"/>
<rect x="18" y="15" width="3" height="3" fill="black"/>
<rect x="12" y="24" width="3" height="3" fill="black"/>
<rect x="27" width="3" height="3" fill="black"/>
<rect x="30" width="3" height="3" fill="black"/>
<rect x="33" width="3" height="3" fill="black"/>
<rect x="30" y="15" width="3" height="3" fill="black"/>
<rect x="33" y="15" width="3" height="3" fill="black"/>
<rect x="33" y="9" width="3" height="3" fill="black"/>
<rect x="33" y="12" width="3" height="3" fill="black"/>
<rect x="39" y="18" width="3" height="3" fill="black"/>
<rect x="39" y="6" width="3" height="3" fill="black"/>
<rect x="27" y="18" width="3" height="3" fill="black"/>
<rect x="12" y="21" width="3" height="3" fill="black"/>
<rect x="27" y="33" width="3" height="3" fill="black"/>
<rect x="27" y="21" width="3" height="3" fill="black"/>
<rect x="30" y="33" width="3" height="3" fill="black"/>
<rect x="33" y="33" width="3" height="3" fill="black"/>
<rect x="30" y="21" width="3" height="3" fill="black"/>
<rect x="33" y="24" width="3" height="3" fill="black"/>
<rect x="36" y="33" width="3" height="3" fill="black"/>
<rect x="39" y="36" width="3" height="3" fill="black"/>
<rect x="42" y="39" width="3" height="3" fill="black"/>
<rect x="45" y="42" width="3" height="3" fill="black"/>
<rect x="45" y="45" width="3" height="3" fill="black"/>
<rect x="45" y="48" width="3" height="3" fill="black"/>
<rect x="48" y="51" width="3" height="3" fill="black"/>
<rect x="48" y="51" width="3" height="3" fill="black"/>
<rect x="48" y="54" width="3" height="3" fill="black"/>
<rect x="45" y="57" width="3" height="3" fill="black"/>
<rect x="42" y="57" width="3" height="3" fill="black"/>
<rect x="27" y="51" width="3" height="3" fill="black"/>
<rect x="18" y="51" width="3" height="3" fill="black"/>
<rect x="27" y="51" width="3" height="3" fill="black"/>
<rect x="18" y="51" width="3" height="3" fill="black"/>
<rect x="30" y="54" width="3" height="3" fill="black"/>
<rect x="27" y="48" width="3" height="3" fill="black"/>
<rect x="18" y="48" width="3" height="3" fill="black"/>
<rect x="27" y="45" width="3" height="3" fill="black"/>
<rect x="18" y="45" width="3" height="3" fill="black"/>
<rect x="18" y="42" width="3" height="3" fill="black"/>
<rect x="36" y="42" width="3" height="3" fill="black"/>
<rect x="36" y="45" width="3" height="3" fill="black"/>
<rect x="36" y="48" width="3" height="3" fill="black"/>
<rect x="9" y="42" width="3" height="3" fill="black"/>
<rect x="12" y="39" width="3" height="3" fill="black"/>
<rect x="9" y="45" width="3" height="3" fill="black"/>
<rect x="6" y="45" width="3" height="3" fill="black"/>
<rect x="3" y="42" width="3" height="3" fill="black"/>
<rect y="39" width="3" height="3" fill="black"/>
<rect x="9" y="48" width="3" height="3" fill="black"/>
<rect x="12" y="57" width="3" height="3" fill="black"/>
<rect x="15" y="57" width="3" height="3" fill="black"/>
<rect x="18" y="57" width="3" height="3" fill="black"/>
<rect x="21" y="57" width="3" height="3" fill="black"/>
<rect x="24" y="57" width="3" height="3" fill="black"/>
<rect x="15" y="54" width="3" height="3" fill="black"/>
<rect x="24" y="54" width="3" height="3" fill="black"/>
<rect x="39" y="57" width="3" height="3" fill="black"/>
<rect x="33" y="57" width="3" height="3" fill="black"/>
<rect x="30" y="57" width="3" height="3" fill="black"/>
<rect x="36" y="57" width="3" height="3" fill="black"/>
<rect x="36" y="51" width="3" height="3" fill="black"/>
<rect x="39" y="54" width="3" height="3" fill="black"/>
<rect x="36" y="27" width="3" height="3" fill="black"/>
<rect x="39" y="30" width="3" height="3" fill="black"/>
<rect x="36" y="30" width="3" height="3" fill="black"/>
<rect x="6" y="51" width="3" height="3" fill="black"/>
<rect x="6" y="54" width="3" height="3" fill="black"/>
<rect x="9" y="57" width="3" height="3" fill="black"/>
<rect x="27" y="57" width="3" height="3" fill="black"/>
</svg>
