<svg width="51" height="60" viewBox="0 0 51 60" fill="none" xmlns="http://www.w3.org/2000/svg">
<rect x="33" y="3" width="3" height="3" fill="black"/>
<rect x="36" y="3" width="3" height="3" fill="black"/>
<rect x="39" y="3" width="3" height="3" fill="black"/>
<rect x="42" y="6" width="3" height="3" fill="black"/>
<rect x="39" y="12" width="3" height="3" fill="black"/>
<rect x="39" y="45" width="3" height="3" fill="black"/>
<rect x="45" y="6" width="3" height="3" fill="black"/>
<rect x="45" y="51" width="3" height="3" fill="black"/>
<rect x="42" y="48" width="3" height="3" fill="black"/>
<rect x="39" y="51" width="3" height="3" fill="black"/>
<rect x="36" y="51" width="3" height="3" fill="black"/>
<rect x="48" y="51" width="3" height="3" fill="black"/>
<rect x="48" y="48" width="3" height="3" fill="black"/>
<rect x="48" y="45" width="3" height="3" fill="black"/>
<rect x="42" y="12" width="3" height="3" fill="black"/>
<rect x="45" y="12" width="3" height="3" fill="black"/>
<rect x="42" y="45" width="3" height="3" fill="black"/>
<rect x="45" y="45" width="3" height="3" fill="black"/>
<rect x="48" y="9" width="3" height="3" fill="black"/>
<rect x="48" y="12" width="3" height="3" fill="black"/>
<rect y="9" width="3" height="3" fill="black"/>
<rect y="12" width="3" height="3" fill="black"/>
<rect x="3" y="12" width="3" height="3" fill="black"/>
<rect x="15" y="3" width="3" height="3" fill="black"/>
<rect x="12" y="3" width="3" height="3" fill="black"/>
<rect x="6" y="6" width="3" height="3" fill="black"/>
<rect x="36" y="6" width="3" height="3" fill="black"/>
<rect x="39" y="9" width="3" height="3" fill="black"/>
<rect x="42" y="9" width="3" height="3" fill="black"/>
<rect x="36" y="9" width="3" height="3" fill="black"/>
<rect x="12" y="6" width="3" height="3" fill="black"/>
<rect x="18" y="6" width="3" height="3" fill="black"/>
<rect x="15" y="6" width="3" height="3" fill="black"/>
<rect x="21" y="6" width="3" height="3" fill="black"/>
<rect x="24" y="6" width="3" height="3" fill="black"/>
<rect x="27" y="6" width="3" height="3" fill="black"/>
<rect x="30" y="6" width="3" height="3" fill="black"/>
<rect x="33" y="6" width="3" height="3" fill="black"/>
<rect x="9" y="9" width="3" height="3" fill="black"/>
<rect x="6" y="9" width="3" height="3" fill="black"/>
<rect x="12" y="9" width="3" height="3" fill="black"/>
<rect x="9" y="3" width="3" height="3" fill="black"/>
<rect x="9" y="12" width="3" height="3" fill="black"/>
<rect x="9" y="45" width="3" height="3" fill="black"/>
<rect x="3" y="6" width="3" height="3" fill="black"/>
<rect x="3" y="51" width="3" height="3" fill="black"/>
<rect x="6" y="48" width="3" height="3" fill="black"/>
<rect x="9" y="51" width="3" height="3" fill="black"/>
<rect x="12" y="51" width="3" height="3" fill="black"/>
<rect y="51" width="3" height="3" fill="black"/>
<rect y="48" width="3" height="3" fill="black"/>
<rect y="48" width="3" height="3" fill="black"/>
<rect y="45" width="3" height="3" fill="black"/>
<rect x="6" y="12" width="3" height="3" fill="black"/>
<rect x="6" y="45" width="3" height="3" fill="black"/>
<rect x="3" y="45" width="3" height="3" fill="black"/>
<rect x="21" y="12" width="3" height="3" fill="black"/>
<rect x="21" y="45" width="3" height="3" fill="black"/>
<rect x="18" y="12" width="3" height="3" fill="black"/>
<rect x="18" y="45" width="3" height="3" fill="black"/>
<rect x="15" y="12" width="3" height="3" fill="black"/>
<rect x="15" y="45" width="3" height="3" fill="black"/>
<rect x="12" y="12" width="3" height="3" fill="black"/>
<rect x="12" y="45" width="3" height="3" fill="black"/>
<rect x="24" y="12" width="3" height="3" fill="black"/>
<rect x="24" y="45" width="3" height="3" fill="black"/>
<rect x="27" y="12" width="3" height="3" fill="black"/>
<rect x="27" y="45" width="3" height="3" fill="black"/>
<rect x="30" y="12" width="3" height="3" fill="black"/>
<rect x="30" y="45" width="3" height="3" fill="black"/>
<rect x="33" y="12" width="3" height="3" fill="black"/>
<rect x="33" y="45" width="3" height="3" fill="black"/>
<rect x="36" y="12" width="3" height="3" fill="black"/>
<rect x="36" y="45" width="3" height="3" fill="black"/>
<rect x="45" y="15" width="3" height="3" fill="black"/>
<rect x="39" y="15" width="3" height="3" fill="black"/>
<rect x="45" y="33" width="3" height="3" fill="black"/>
<rect x="39" y="33" width="3" height="3" fill="black"/>
<rect x="45" y="24" width="3" height="3" fill="black"/>
<rect x="39" y="24" width="3" height="3" fill="black"/>
<rect x="45" y="42" width="3" height="3" fill="black"/>
<rect x="39" y="42" width="3" height="3" fill="black"/>
<rect x="45" y="18" width="3" height="3" fill="black"/>
<rect x="39" y="18" width="3" height="3" fill="black"/>
<rect x="45" y="36" width="3" height="3" fill="black"/>
<rect x="39" y="36" width="3" height="3" fill="black"/>
<rect x="45" y="27" width="3" height="3" fill="black"/>
<rect x="39" y="27" width="3" height="3" fill="black"/>
<rect x="45" y="21" width="3" height="3" fill="black"/>
<rect x="39" y="21" width="3" height="3" fill="black"/>
<rect x="45" y="39" width="3" height="3" fill="black"/>
<rect x="39" y="39" width="3" height="3" fill="black"/>
<rect x="45" y="30" width="3" height="3" fill="black"/>
<rect x="39" y="30" width="3" height="3" fill="black"/>
<rect x="42" y="54" width="3" height="3" fill="black"/>
<rect x="45" y="54" width="3" height="3" fill="black"/>
<rect x="39" y="54" width="3" height="3" fill="black"/>
<rect x="3" y="15" width="3" height="3" fill="black"/>
<rect x="9" y="15" width="3" height="3" fill="black"/>
<rect x="3" y="33" width="3" height="3" fill="black"/>
<rect x="9" y="33" width="3" height="3" fill="black"/>
<rect x="3" y="24" width="3" height="3" fill="black"/>
<rect x="9" y="24" width="3" height="3" fill="black"/>
<rect x="3" y="42" width="3" height="3" fill="black"/>
<rect x="9" y="42" width="3" height="3" fill="black"/>
<rect x="3" y="18" width="3" height="3" fill="black"/>
<rect x="9" y="18" width="3" height="3" fill="black"/>
<rect x="3" y="36" width="3" height="3" fill="black"/>
<rect x="9" y="36" width="3" height="3" fill="black"/>
<rect x="3" y="27" width="3" height="3" fill="black"/>
<rect x="9" y="27" width="3" height="3" fill="black"/>
<rect x="3" y="21" width="3" height="3" fill="black"/>
<rect x="9" y="21" width="3" height="3" fill="black"/>
<rect x="3" y="39" width="3" height="3" fill="black"/>
<rect x="9" y="39" width="3" height="3" fill="black"/>
<rect x="3" y="30" width="3" height="3" fill="black"/>
<rect x="9" y="30" width="3" height="3" fill="black"/>
<rect x="9" y="54" width="3" height="3" fill="black"/>
<rect x="12" y="54" width="3" height="3" fill="black"/>
<rect x="15" y="54" width="3" height="3" fill="black"/>
<rect x="15" y="51" width="3" height="3" fill="black"/>
<rect x="15" y="57" width="3" height="3" fill="black"/>
<rect x="12" y="57" width="3" height="3" fill="black"/>
<rect x="15" width="3" height="3" fill="black"/>
<rect x="18" y="54" width="3" height="3" fill="black"/>
<rect x="18" y="57" width="3" height="3" fill="black"/>
<rect x="18" width="3" height="3" fill="black"/>
<rect x="21" y="54" width="3" height="3" fill="black"/>
<rect x="21" y="57" width="3" height="3" fill="black"/>
<rect x="21" width="3" height="3" fill="black"/>
<rect x="36" y="54" width="3" height="3" fill="black"/>
<rect x="30" y="54" width="3" height="3" fill="black"/>
<rect x="30" y="57" width="3" height="3" fill="black"/>
<rect x="30" width="3" height="3" fill="black"/>
<rect x="27" y="54" width="3" height="3" fill="black"/>
<rect x="27" y="57" width="3" height="3" fill="black"/>
<rect x="27" width="3" height="3" fill="black"/>
<rect x="33" y="54" width="3" height="3" fill="black"/>
<rect x="33" y="51" width="3" height="3" fill="black"/>
<rect x="33" y="57" width="3" height="3" fill="black"/>
<rect x="36" y="57" width="3" height="3" fill="black"/>
<rect x="33" width="3" height="3" fill="black"/>
<rect x="6" y="54" width="3" height="3" fill="black"/>
<rect x="3" y="54" width="3" height="3" fill="black"/>
<rect x="24" y="54" width="3" height="3" fill="black"/>
<rect x="24" y="51" width="3" height="3" fill="black"/>
<rect x="24" y="48" width="3" height="3" fill="black"/>
<rect x="27" y="48" width="3" height="3" fill="black"/>
<rect x="18" y="21" width="3" height="3" fill="black"/>
<rect x="18" y="24" width="3" height="3" fill="black"/>
<rect x="21" y="48" width="3" height="3" fill="black"/>
<rect x="21" y="18" width="3" height="3" fill="black"/>
<rect x="21" y="21" width="3" height="3" fill="black"/>
<rect x="21" y="24" width="3" height="3" fill="black"/>
<rect x="24" y="27" width="3" height="3" fill="black"/>
<rect x="21" y="30" width="3" height="3" fill="black"/>
<rect x="18" y="33" width="3" height="3" fill="black"/>
<rect x="27" y="30" width="3" height="3" fill="black"/>
<rect x="30" y="33" width="3" height="3" fill="black"/>
<rect x="33" y="30" width="3" height="3" fill="black"/>
<rect x="30" y="36" width="3" height="3" fill="black"/>
<rect x="27" y="39" width="3" height="3" fill="black"/>
<rect x="36" y="48" width="3" height="3" fill="black"/>
<rect x="15" y="21" width="3" height="3" fill="black"/>
<rect x="15" y="24" width="3" height="3" fill="black"/>
<rect x="12" y="48" width="3" height="3" fill="black"/>
<rect x="24" y="57" width="3" height="3" fill="black"/>
<rect x="24" width="3" height="3" fill="black"/>
</svg>
