<svg width="57" height="69" viewBox="0 0 57 69" fill="none" xmlns="http://www.w3.org/2000/svg">
<rect x="12" y="18" width="3" height="3" fill="black"/>
<rect x="12" y="15" width="3" height="3" fill="black"/>
<rect x="42" y="3" width="3" height="3" fill="black"/>
<rect x="42" y="9" width="3" height="3" fill="black"/>
<rect x="42" y="12" width="3" height="3" fill="black"/>
<rect x="45" y="15" width="3" height="3" fill="black"/>
<rect x="48" y="9" width="3" height="3" fill="black"/>
<rect x="48" y="12" width="3" height="3" fill="black"/>
<rect x="48" y="18" width="3" height="3" fill="black"/>
<rect x="54" y="18" width="3" height="3" fill="black"/>
<rect x="54" y="15" width="3" height="3" fill="black"/>
<rect x="42" y="15" width="3" height="3" fill="black"/>
<rect x="48" y="15" width="3" height="3" fill="black"/>
<rect x="48" y="24" width="3" height="3" fill="black"/>
<rect x="48" y="27" width="3" height="3" fill="black"/>
<rect x="51" y="24" width="3" height="3" fill="black"/>
<rect x="51" y="12" width="3" height="3" fill="black"/>
<rect x="48" y="21" width="3" height="3" fill="black"/>
<rect x="54" y="21" width="3" height="3" fill="black"/>
<rect x="24" y="3" width="3" height="3" fill="black"/>
<rect x="24" y="27" width="3" height="3" fill="black"/>
<rect x="21" y="30" width="3" height="3" fill="black"/>
<rect x="24" y="30" width="3" height="3" fill="black"/>
<rect x="18" y="27" width="3" height="3" fill="black"/>
<rect x="12" y="21" width="3" height="3" fill="black"/>
<rect x="30" width="3" height="3" fill="black"/>
<rect x="27" width="3" height="3" fill="black"/>
<rect x="30" y="6" width="3" height="3" fill="black"/>
<rect x="30" y="15" width="3" height="3" fill="black"/>
<rect x="30" y="9" width="3" height="3" fill="black"/>
<rect x="30" y="12" width="3" height="3" fill="black"/>
<rect x="27" y="15" width="3" height="3" fill="black"/>
<rect x="27" y="9" width="3" height="3" fill="black"/>
<rect x="27" y="12" width="3" height="3" fill="black"/>
<rect x="21" y="18" width="3" height="3" fill="black"/>
<rect x="27" y="6" width="3" height="3" fill="black"/>
<rect x="24" y="6" width="3" height="3" fill="black"/>
<rect x="21" y="6" width="3" height="3" fill="black"/>
<rect x="33" y="6" width="3" height="3" fill="black"/>
<rect x="33" y="15" width="3" height="3" fill="black"/>
<rect x="33" y="9" width="3" height="3" fill="black"/>
<rect x="33" y="12" width="3" height="3" fill="black"/>
<rect x="30" y="33" width="3" height="3" fill="black"/>
<rect x="27" y="33" width="3" height="3" fill="black"/>
<rect x="30" y="21" width="3" height="3" fill="black"/>
<rect x="27" y="24" width="3" height="3" fill="black"/>
<rect x="18" y="33" width="3" height="3" fill="black"/>
<rect x="24" y="33" width="3" height="3" fill="black"/>
<rect x="18" y="15" width="3" height="3" fill="black"/>
<rect x="15" y="24" width="3" height="3" fill="black"/>
<rect x="15" y="12" width="3" height="3" fill="black"/>
<rect x="24" y="9" width="3" height="3" fill="black"/>
<rect x="24" y="12" width="3" height="3" fill="black"/>
<rect x="21" y="15" width="3" height="3" fill="black"/>
<rect x="18" y="9" width="3" height="3" fill="black"/>
<rect x="18" y="12" width="3" height="3" fill="black"/>
<rect x="18" y="18" width="3" height="3" fill="black"/>
<rect x="24" y="15" width="3" height="3" fill="black"/>
<rect x="18" y="24" width="3" height="3" fill="black"/>
<rect x="33" width="3" height="3" fill="black"/>
<rect x="36" width="3" height="3" fill="black"/>
<rect x="39" width="3" height="3" fill="black"/>
<rect x="36" y="6" width="3" height="3" fill="black"/>
<rect x="36" y="15" width="3" height="3" fill="black"/>
<rect x="36" y="9" width="3" height="3" fill="black"/>
<rect x="36" y="12" width="3" height="3" fill="black"/>
<rect x="39" y="15" width="3" height="3" fill="black"/>
<rect x="39" y="9" width="3" height="3" fill="black"/>
<rect x="39" y="12" width="3" height="3" fill="black"/>
<rect x="45" y="18" width="3" height="3" fill="black"/>
<rect x="39" y="6" width="3" height="3" fill="black"/>
<rect x="42" y="6" width="3" height="3" fill="black"/>
<rect x="45" y="6" width="3" height="3" fill="black"/>
<rect x="33" y="18" width="3" height="3" fill="black"/>
<rect x="18" y="21" width="3" height="3" fill="black"/>
<rect x="33" y="33" width="3" height="3" fill="black"/>
<rect x="36" y="36" width="3" height="3" fill="black"/>
<rect x="33" y="36" width="3" height="3" fill="black"/>
<rect x="33" y="39" width="3" height="3" fill="black"/>
<rect x="36" y="39" width="3" height="3" fill="black"/>
<rect x="36" y="42" width="3" height="3" fill="black"/>
<rect x="36" y="45" width="3" height="3" fill="black"/>
<rect x="21" y="33" width="3" height="3" fill="black"/>
<rect x="39" y="36" width="3" height="3" fill="black"/>
<rect x="39" y="39" width="3" height="3" fill="black"/>
<rect x="33" y="21" width="3" height="3" fill="black"/>
<rect x="36" y="33" width="3" height="3" fill="black"/>
<rect x="39" y="33" width="3" height="3" fill="black"/>
<rect x="36" y="21" width="3" height="3" fill="black"/>
<rect x="39" y="24" width="3" height="3" fill="black"/>
<rect x="42" y="33" width="3" height="3" fill="black"/>
<rect x="45" y="36" width="3" height="3" fill="black"/>
<rect x="45" y="39" width="3" height="3" fill="black"/>
<rect x="48" y="45" width="3" height="3" fill="black"/>
<rect x="48" y="42" width="3" height="3" fill="black"/>
<rect x="45" y="48" width="3" height="3" fill="black"/>
<rect x="45" y="54" width="3" height="3" fill="black"/>
<rect x="45" y="57" width="3" height="3" fill="black"/>
<rect x="45" y="51" width="3" height="3" fill="black"/>
<rect x="48" y="60" width="3" height="3" fill="black"/>
<rect x="45" y="63" width="3" height="3" fill="black"/>
<rect x="42" y="63" width="3" height="3" fill="black"/>
<rect x="9" y="45" width="3" height="3" fill="black"/>
<rect x="6" y="42" width="3" height="3" fill="black"/>
<rect x="6" y="39" width="3" height="3" fill="black"/>
<rect x="3" y="36" width="3" height="3" fill="black"/>
<rect x="6" y="36" width="3" height="3" fill="black"/>
<rect y="33" width="3" height="3" fill="black"/>
<rect x="3" y="33" width="3" height="3" fill="black"/>
<rect y="30" width="3" height="3" fill="black"/>
<rect x="18" y="36" width="3" height="3" fill="black"/>
<rect x="21" y="39" width="3" height="3" fill="black"/>
<rect x="24" y="39" width="3" height="3" fill="black"/>
<rect x="27" y="39" width="3" height="3" fill="black"/>
<rect x="30" y="39" width="3" height="3" fill="black"/>
<rect x="42" y="39" width="3" height="3" fill="black"/>
<rect x="9" y="36" width="3" height="3" fill="black"/>
<rect x="15" y="36" width="3" height="3" fill="black"/>
<rect x="12" y="36" width="3" height="3" fill="black"/>
<rect x="9" y="33" width="3" height="3" fill="black"/>
<rect x="9" y="48" width="3" height="3" fill="black"/>
<rect x="6" y="33" width="3" height="3" fill="black"/>
<rect x="3" y="30" width="3" height="3" fill="black"/>
<rect y="27" width="3" height="3" fill="black"/>
<rect x="9" y="51" width="3" height="3" fill="black"/>
<rect x="6" y="66" width="3" height="3" fill="black"/>
<rect x="9" y="66" width="3" height="3" fill="black"/>
<rect x="12" y="63" width="3" height="3" fill="black"/>
<rect x="21" y="51" width="3" height="3" fill="black"/>
<rect x="18" y="54" width="3" height="3" fill="black"/>
<rect x="21" y="54" width="3" height="3" fill="black"/>
<rect x="18" y="60" width="3" height="3" fill="black"/>
<rect x="21" y="57" width="3" height="3" fill="black"/>
<rect x="18" y="63" width="3" height="3" fill="black"/>
<rect x="15" y="54" width="3" height="3" fill="black"/>
<rect x="24" y="51" width="3" height="3" fill="black"/>
<rect x="27" y="51" width="3" height="3" fill="black"/>
<rect x="39" y="54" width="3" height="3" fill="black"/>
<rect x="33" y="54" width="3" height="3" fill="black"/>
<rect x="27" y="54" width="3" height="3" fill="black"/>
<rect x="39" y="51" width="3" height="3" fill="black"/>
<rect x="36" y="51" width="3" height="3" fill="black"/>
<rect x="42" y="51" width="3" height="3" fill="black"/>
<rect x="12" y="60" width="3" height="3" fill="black"/>
<rect x="15" y="57" width="3" height="3" fill="black"/>
<rect x="15" y="63" width="3" height="3" fill="black"/>
<rect x="36" y="63" width="3" height="3" fill="black"/>
<rect x="27" y="63" width="3" height="3" fill="black"/>
<rect x="30" y="66" width="3" height="3" fill="black"/>
<rect x="33" y="66" width="3" height="3" fill="black"/>
<rect x="39" y="57" width="3" height="3" fill="black"/>
<rect x="39" y="60" width="3" height="3" fill="black"/>
<rect x="33" y="57" width="3" height="3" fill="black"/>
<rect x="33" y="60" width="3" height="3" fill="black"/>
<rect x="27" y="57" width="3" height="3" fill="black"/>
<rect x="27" y="60" width="3" height="3" fill="black"/>
<rect x="42" y="27" width="3" height="3" fill="black"/>
<rect x="45" y="30" width="3" height="3" fill="black"/>
<rect x="42" y="30" width="3" height="3" fill="black"/>
<rect x="6" y="54" width="3" height="3" fill="black"/>
<rect x="6" y="57" width="3" height="3" fill="black"/>
<rect x="6" y="60" width="3" height="3" fill="black"/>
<rect x="3" y="63" width="3" height="3" fill="black"/>
<rect x="3" y="66" width="3" height="3" fill="black"/>
</svg>
